<svg width="7" height="9" viewBox="0 0 7 9" fill="none" xmlns="http://www.w3.org/2000/svg">
<path d="M6.73077 2.23447V0.692308C6.73056 0.508761 6.65755 0.332792 6.52777 0.203004C6.39798 0.0732167 6.22201 0.000209915 6.03846 0H1.19231C1.00876 0.000209915 0.832792 0.0732167 0.703004 0.203004C0.573217 0.332792 0.50021 0.508761 0.5 0.692308V2.25C0.500254 2.35743 0.525389 2.46334 0.573434 2.55943C0.621478 2.65552 0.691127 2.73918 0.776919 2.80384L3.03848 4.5L0.77694 6.19616C0.696442 6.25705 0.630172 6.33473 0.582736 6.42382C0.535301 6.51291 0.507839 6.61126 0.502261 6.71203C0.500807 6.72464 0.500052 6.73731 0.5 6.75V8.30769C0.50021 8.49124 0.573217 8.66721 0.703004 8.797C0.832792 8.92678 1.00876 8.99979 1.19231 9H6.03846C6.22201 8.99979 6.39798 8.92678 6.52777 8.797C6.65755 8.66721 6.73056 8.49124 6.73077 8.30769V6.76553C6.73073 6.75262 6.72996 6.73972 6.72849 6.72689C6.72282 6.62667 6.69553 6.52887 6.64848 6.44021C6.60143 6.35154 6.53574 6.27412 6.45592 6.21325L4.18942 4.5L6.45594 2.78675C6.54112 2.72201 6.61022 2.63851 6.65789 2.54273C6.70555 2.44694 6.73049 2.34146 6.73077 2.23447ZM1.65084 6.4061L3.61458 4.93331L5.57752 6.41711L1.65084 6.4061ZM6.03846 2.23448L3.61458 4.0667L1.19231 2.25V0.692308H6.03846V2.23448Z" fill="white"/>
</svg>
