<svg width="10" height="17" viewBox="0 0 10 17" fill="none" xmlns="http://www.w3.org/2000/svg">
<path d="M9.47826 3.08896V5.08896V5.28462C9.47826 5.51109 9.40139 5.73085 9.26023 5.90794L8.60997 6.72373C8.32765 7.0779 8.17391 7.51742 8.17391 7.97035V13.3498C8.17391 13.6384 8.1208 13.9245 8.01722 14.1939C7.90541 14.4847 7.73693 14.7503 7.52158 14.9755L7.431 15.0702C6.86411 15.6628 6.07962 15.998 5.25949 15.998H5.21877C4.39864 15.998 3.61415 15.6628 3.04726 15.0702L2.95669 14.9755C2.74133 14.7503 2.57286 14.4847 2.46104 14.1939C2.35746 13.9245 2.30435 13.6384 2.30435 13.3498V7.97035C2.30435 7.51742 2.15061 7.0779 1.86829 6.72373L1.21803 5.90794C1.07687 5.73085 1 5.51109 1 5.28462V5.08896V3.08896C1 2.53667 1.44772 2.08896 2 2.08896H2.63043H4.26087H6.21739H7.84783H8.47826C9.03055 2.08896 9.47826 2.53667 9.47826 3.08896Z" fill="black" fill-opacity="0.8"/>
<path d="M9.47826 5.08896V3.08896C9.47826 2.53667 9.03055 2.08896 8.47826 2.08896H7.84783M9.47826 5.08896V5.28462C9.47826 5.51109 9.40139 5.73085 9.26023 5.90794L8.60997 6.72373C8.32765 7.0779 8.17391 7.51742 8.17391 7.97035V13.3498C8.17391 13.6384 8.1208 13.9245 8.01722 14.1939V14.1939C7.90541 14.4847 7.73693 14.7503 7.52158 14.9755L7.431 15.0702C6.86411 15.6628 6.07962 15.998 5.25949 15.998H5.21877C4.39864 15.998 3.61415 15.6628 3.04726 15.0702L2.95669 14.9755C2.74133 14.7503 2.57286 14.4847 2.46104 14.1939V14.1939C2.35746 13.9245 2.30435 13.6384 2.30435 13.3498V7.97035C2.30435 7.51742 2.15061 7.0779 1.86829 6.72373L1.21803 5.90794C1.07687 5.73085 1 5.51109 1 5.28462V5.08896M9.47826 5.08896H1M1 5.08896V3.08896C1 2.53667 1.44772 2.08896 2 2.08896H2.63043M7.84783 2.08896V0.998047M7.84783 2.08896H6.21739M7.84783 2.08896V2.90714M2.63043 2.08896V0.998047M2.63043 2.08896H4.26087M2.63043 2.08896V2.90714M4.26087 2.08896V0.998047M4.26087 2.08896H6.21739M4.26087 2.08896V2.90714M6.21739 2.08896V0.998047M6.21739 2.08896V2.90714" stroke="white" stroke-linecap="round"/>
</svg>
