<svg width="9" height="9" viewBox="0 0 9 9" fill="none" xmlns="http://www.w3.org/2000/svg">
<path d="M8.25 0.692308H7.125V0.346154C7.125 0.254348 7.08549 0.166303 7.01517 0.101386C6.94484 0.0364697 6.84946 0 6.75 0C6.65054 0 6.55516 0.0364697 6.48483 0.101386C6.41451 0.166303 6.375 0.254348 6.375 0.346154V0.692308H2.625V0.346154C2.625 0.254348 2.58549 0.166303 2.51516 0.101386C2.44484 0.0364697 2.34946 0 2.25 0C2.15054 0 2.05516 0.0364697 1.98484 0.101386C1.91451 0.166303 1.875 0.254348 1.875 0.346154V0.692308H0.75C0.551148 0.692489 0.360496 0.765487 0.219887 0.89528C0.0792771 1.02507 0.000196448 1.20106 0 1.38462V8.30769C0.000196448 8.49125 0.0792771 8.66723 0.219887 8.79703C0.360496 8.92682 0.551148 8.99982 0.75 9H8.25C8.44885 8.99982 8.6395 8.92682 8.78011 8.79703C8.92072 8.66723 8.9998 8.49125 9 8.30769V1.38462C8.9998 1.20106 8.92072 1.02507 8.78011 0.89528C8.6395 0.765487 8.44885 0.692489 8.25 0.692308ZM3.37527 7.44231C3.22759 7.44267 3.08129 7.41602 2.94483 7.36389C2.80837 7.31176 2.68446 7.23518 2.58025 7.13858C2.50989 7.0737 2.47032 6.98568 2.47026 6.89387C2.47021 6.80206 2.50966 6.714 2.57994 6.64904C2.65023 6.58409 2.74559 6.54757 2.84505 6.54751C2.9445 6.54746 3.03991 6.58388 3.11028 6.64876C3.1539 6.68898 3.2076 6.71865 3.26661 6.73514C3.32563 6.75164 3.38813 6.75444 3.4486 6.74331C3.50907 6.73218 3.56563 6.70746 3.61328 6.67134C3.66093 6.63521 3.69819 6.5888 3.72177 6.53621C3.74535 6.48362 3.75452 6.42648 3.74846 6.36983C3.7424 6.31319 3.72131 6.25881 3.68704 6.21149C3.65278 6.16417 3.6064 6.12538 3.55202 6.09855C3.49764 6.07173 3.43693 6.05769 3.37527 6.05769H3.37505C3.36337 6.05769 3.3517 6.05706 3.34005 6.05604C3.33632 6.05573 3.33268 6.0552 3.329 6.05479C3.32119 6.05389 3.31341 6.05285 3.30565 6.0515C3.30133 6.05074 3.29704 6.0499 3.29277 6.04901C3.28572 6.04755 3.27869 6.04586 3.27171 6.04401C3.26745 6.04288 3.26319 6.04179 3.259 6.04052C3.25196 6.03839 3.24497 6.03596 3.23804 6.03344C3.23426 6.03207 3.23044 6.03082 3.22673 6.02934C3.21865 6.02612 3.21071 6.02249 3.20279 6.0187C3.2005 6.01759 3.1981 6.01666 3.19583 6.01552C3.18595 6.01053 3.17624 6.00508 3.16672 5.99919C3.16352 5.99721 3.16054 5.99498 3.1574 5.99291C3.15191 5.98928 3.14635 5.98579 3.14102 5.98185C3.14033 5.98134 3.13973 5.98076 3.13905 5.98024C3.13339 5.97599 3.12808 5.97141 3.12271 5.96687C3.11879 5.96357 3.11467 5.96041 3.11094 5.95699C3.10732 5.95367 3.10405 5.95007 3.10057 5.94662C3.0552 5.90142 3.02364 5.8459 3.00913 5.78575C3.00888 5.78465 3.00847 5.78359 3.00822 5.78249C3.00691 5.77666 3.00613 5.77066 3.00515 5.76472C3.00426 5.75934 3.00311 5.75401 3.0025 5.7486C3.00197 5.74415 3.0019 5.7396 3.00156 5.7351C3.00103 5.72801 3.00046 5.72093 3.00041 5.71382C3.00039 5.71305 3.00027 5.71231 3.00027 5.71154C3.00027 5.70795 3.00073 5.70446 3.00087 5.70089C3.0011 5.69372 3.00133 5.68656 3.00204 5.67939C3.00252 5.67455 3.00334 5.66983 3.00405 5.66506C3.00499 5.65861 3.00591 5.65218 3.00723 5.64578C3.00831 5.64064 3.00971 5.63563 3.01101 5.63056C3.01254 5.62466 3.01406 5.61877 3.01593 5.61292C3.01763 5.60768 3.01962 5.60257 3.02156 5.59744C3.02365 5.59196 3.02568 5.58646 3.02806 5.58104C3.0304 5.57575 3.03305 5.57064 3.03566 5.56547C3.03823 5.56042 3.0407 5.55536 3.04354 5.55039C3.0466 5.545 3.05004 5.53981 3.0534 5.5346C3.05631 5.53011 3.0591 5.52557 3.06224 5.52117C3.06622 5.51562 3.07054 5.51034 3.07485 5.50502C3.07746 5.50179 3.0797 5.49844 3.08245 5.49528L3.34504 5.19231H2.81277C2.71332 5.19231 2.61794 5.15584 2.54761 5.09092C2.47728 5.02601 2.43777 4.93796 2.43777 4.84615C2.43777 4.75435 2.47728 4.6663 2.54761 4.60139C2.61794 4.53647 2.71332 4.5 2.81277 4.5H4.12527C4.19591 4.5 4.26512 4.51842 4.32492 4.55313C4.38471 4.58784 4.43267 4.63744 4.46327 4.69621C4.49387 4.75498 4.50587 4.82054 4.49788 4.88532C4.48989 4.95011 4.46223 5.0115 4.41811 5.06241L4.00237 5.54211C4.20257 5.66615 4.35429 5.84629 4.43515 6.05597C4.51601 6.26564 4.52173 6.49376 4.45147 6.70666C4.3812 6.91957 4.23868 7.106 4.04491 7.23845C3.85114 7.3709 3.61639 7.44237 3.37527 7.44231ZM6.37527 7.09615C6.37527 7.18796 6.33577 7.27601 6.26544 7.34092C6.19511 7.40584 6.09973 7.44231 6.00027 7.44231C5.90082 7.44231 5.80544 7.40584 5.73511 7.34092C5.66478 7.27601 5.62527 7.18796 5.62527 7.09615V5.53846L5.47527 5.64232C5.3957 5.69741 5.29568 5.72105 5.19722 5.70807C5.09876 5.69508 5.00993 5.64652 4.95026 5.57307C4.89058 5.49962 4.86497 5.4073 4.87904 5.31641C4.89311 5.22553 4.94571 5.14353 5.02528 5.08844L5.77528 4.56921C5.831 4.53065 5.89725 4.50717 5.96661 4.5014C6.03597 4.49563 6.1057 4.5078 6.16798 4.53655C6.23027 4.5653 6.28265 4.6095 6.31927 4.66418C6.35588 4.71886 6.37527 4.78187 6.37527 4.84615V7.09615ZM8.25 2.76923H0.75V1.38462H1.875V1.73077C1.875 1.82257 1.91451 1.91062 1.98484 1.97554C2.05516 2.04045 2.15054 2.07692 2.25 2.07692C2.34946 2.07692 2.44484 2.04045 2.51516 1.97554C2.58549 1.91062 2.625 1.82257 2.625 1.73077V1.38462H6.375V1.73077C6.375 1.82257 6.41451 1.91062 6.48483 1.97554C6.55516 2.04045 6.65054 2.07692 6.75 2.07692C6.84946 2.07692 6.94484 2.04045 7.01517 1.97554C7.08549 1.91062 7.125 1.82257 7.125 1.73077V1.38462H8.25V2.76923Z" fill="white"/>
</svg>
