<svg width="17" height="12" viewBox="0 0 17 12" fill="none" xmlns="http://www.w3.org/2000/svg">
<path d="M8.5 1.00195C3.14286 1.00195 1 5.85542 1 5.85542C1 5.85542 3.14286 10.7078 8.5 10.7078C13.8571 10.7078 16 5.85542 16 5.85542C16 5.85542 13.8571 1.00195 8.5 1.00195Z" fill="black" fill-opacity="0.8"/>
<path d="M8.5 8.55157C9.97933 8.55157 11.1786 7.34449 11.1786 5.85549C11.1786 4.36648 9.97933 3.15941 8.5 3.15941C7.02067 3.15941 5.82143 4.36648 5.82143 5.85549C5.82143 7.34449 7.02067 8.55157 8.5 8.55157Z" fill="black" fill-opacity="0.8"/>
<path d="M8.5 1.00195C3.14286 1.00195 1 5.85542 1 5.85542C1 5.85542 3.14286 10.7078 8.5 10.7078C13.8571 10.7078 16 5.85542 16 5.85542C16 5.85542 13.8571 1.00195 8.5 1.00195Z" stroke="white" stroke-linecap="round" stroke-linejoin="round"/>
<path d="M8.5 8.55157C9.97933 8.55157 11.1786 7.34449 11.1786 5.85549C11.1786 4.36648 9.97933 3.15941 8.5 3.15941C7.02067 3.15941 5.82143 4.36648 5.82143 5.85549C5.82143 7.34449 7.02067 8.55157 8.5 8.55157Z" stroke="white" stroke-linecap="round" stroke-linejoin="round"/>
</svg>
