<svg width="17" height="17" viewBox="0 0 17 17" fill="none" xmlns="http://www.w3.org/2000/svg">
<path d="M12.9309 1H15.317C15.4978 1 15.6713 1.07183 15.7991 1.1997C15.927 1.32757 15.9988 1.50099 15.9988 1.68182V4.06814" fill="black" fill-opacity="0.8"/>
<path d="M12.9309 16H15.317C15.4978 16 15.6713 15.9282 15.7991 15.8003C15.927 15.6724 15.9988 15.499 15.9988 15.3182V12.9318" fill="black" fill-opacity="0.8"/>
<path d="M4.06793 16H1.68176C1.50095 16 1.32754 15.9282 1.19968 15.8003C1.07183 15.6724 1 15.499 1 15.3182V12.9318" fill="black" fill-opacity="0.8"/>
<path d="M4.06793 1H1.68176C1.50095 1 1.32754 1.07183 1.19968 1.1997C1.07183 1.32757 1 1.50099 1 1.68182V4.06814" fill="black" fill-opacity="0.8"/>
<path d="M8.49939 9.86362C10.0055 9.86362 11.2264 8.64258 11.2264 7.13635C11.2264 5.63012 10.0055 4.40908 8.49939 4.40908C6.99328 4.40908 5.77234 5.63012 5.77234 7.13635C5.77234 8.64258 6.99328 9.86362 8.49939 9.86362Z" fill="black" fill-opacity="0.8"/>
<path d="M3.97589 12.5909C4.41043 11.7677 5.06131 11.0787 5.8584 10.5982C6.6555 10.1176 7.56865 9.86362 8.49939 9.86362C9.43014 9.86362 10.3432 10.1176 11.1403 10.5982C11.9374 11.0787 12.5883 11.7677 13.0228 12.5909" fill="black" fill-opacity="0.8"/>
<path d="M12.9309 1H15.317C15.4978 1 15.6713 1.07183 15.7991 1.1997C15.927 1.32757 15.9988 1.50099 15.9988 1.68182V4.06814M12.9309 16H15.317C15.4978 16 15.6713 15.9282 15.7991 15.8003C15.927 15.6724 15.9988 15.499 15.9988 15.3182V12.9318M4.06793 16H1.68176C1.50095 16 1.32754 15.9282 1.19968 15.8003C1.07183 15.6724 1 15.499 1 15.3182V12.9318M4.06793 1H1.68176C1.50095 1 1.32754 1.07183 1.19968 1.1997C1.07183 1.32757 1 1.50099 1 1.68182V4.06814M8.49939 9.86362C10.0055 9.86362 11.2264 8.64258 11.2264 7.13635C11.2264 5.63012 10.0055 4.40908 8.49939 4.40908C6.99328 4.40908 5.77234 5.63012 5.77234 7.13635C5.77234 8.64258 6.99328 9.86362 8.49939 9.86362ZM8.49939 9.86362C7.56865 9.86362 6.6555 10.1176 5.8584 10.5982C5.06131 11.0787 4.41043 11.7677 3.97589 12.5909M8.49939 9.86362C9.43014 9.86362 10.3432 10.1176 11.1403 10.5982C11.9374 11.0787 12.5883 11.7677 13.0228 12.5909" stroke="white" stroke-linecap="round" stroke-linejoin="round"/>
</svg>
