<svg width="9" height="9" viewBox="0 0 9 9" fill="none" xmlns="http://www.w3.org/2000/svg">
<path d="M7.41872 0.140625H1.57859C1.40655 0.140828 1.24161 0.211598 1.11996 0.337407C0.998314 0.463216 0.929884 0.633792 0.929688 0.811713V8.19368C0.929884 8.3716 0.998314 8.54217 1.11996 8.66798C1.24161 8.79379 1.40655 8.86456 1.57859 8.86476H7.41872C7.59075 8.86456 7.75569 8.79379 7.87734 8.66798C7.99899 8.54217 8.06742 8.3716 8.06762 8.19368V0.811713C8.06742 0.633792 7.99899 0.463216 7.87734 0.337407C7.75569 0.211598 7.59075 0.140828 7.41872 0.140625ZM3.20085 1.14726H5.79646C5.88251 1.14726 5.96503 1.18261 6.02588 1.24553C6.08673 1.30846 6.12091 1.39381 6.12091 1.4828C6.12091 1.57179 6.08673 1.65714 6.02588 1.72007C5.96503 1.78299 5.88251 1.81834 5.79646 1.81834H3.20085C3.1148 1.81834 3.03227 1.78299 2.97143 1.72007C2.91058 1.65714 2.8764 1.57179 2.8764 1.4828C2.8764 1.39381 2.91058 1.30846 2.97143 1.24553C3.03227 1.18261 3.1148 1.14726 3.20085 1.14726ZM6.64032 7.45517C6.57152 7.50861 6.485 7.5316 6.39981 7.51908C6.31462 7.50656 6.23773 7.45955 6.18604 7.3884C5.98956 7.11751 5.73479 6.89764 5.44191 6.74621C5.14903 6.59478 4.82609 6.51595 4.49864 6.51596C4.1712 6.51596 3.84826 6.59481 3.55538 6.74626C3.26251 6.8977 3.00775 7.11758 2.81128 7.38849C2.7596 7.45964 2.68271 7.50665 2.59751 7.51917C2.51232 7.53169 2.42581 7.5087 2.357 7.45525C2.2882 7.4018 2.24275 7.32228 2.23064 7.23417C2.21853 7.14607 2.24077 7.05659 2.29245 6.98544C2.58 6.58695 2.96354 6.27339 3.40483 6.07602C3.16324 5.8479 2.99399 5.54959 2.91927 5.22021C2.84456 4.89084 2.86788 4.5458 2.98617 4.23038C3.10446 3.91496 3.31219 3.64389 3.58211 3.45274C3.85202 3.2616 4.17151 3.15932 4.49864 3.15932C4.82577 3.15931 5.14526 3.26159 5.41518 3.45273C5.6851 3.64387 5.89284 3.91494 6.01113 4.23036C6.12943 4.54578 6.15275 4.89082 6.07804 5.22019C6.00333 5.54956 5.83408 5.84788 5.5925 6.076C6.03376 6.27336 6.41729 6.5869 6.70484 6.98536C6.75652 7.05651 6.77876 7.14598 6.76666 7.23408C6.75456 7.32219 6.70912 7.40171 6.64032 7.45517ZM5.47201 4.83824C5.47201 5.03733 5.41492 5.23195 5.30797 5.39749C5.20101 5.56303 5.049 5.69205 4.87114 5.76824C4.69328 5.84443 4.49757 5.86437 4.30876 5.82553C4.11995 5.78669 3.94651 5.69081 3.81039 5.55003C3.67426 5.40925 3.58156 5.22989 3.544 5.03462C3.50644 4.83935 3.52572 4.63695 3.59939 4.45302C3.67306 4.26908 3.79782 4.11186 3.95789 4.00125C4.11795 3.89064 4.30614 3.83161 4.49865 3.83161C4.75671 3.83191 5.00412 3.93807 5.18659 4.12678C5.36907 4.31549 5.47171 4.57136 5.47201 4.83824Z" fill="white"/>
</svg>
