<svg width="12" height="16" viewBox="0 0 12 16" fill="none" xmlns="http://www.w3.org/2000/svg">
<path d="M3.8535 0.00195312V0.00195312C3.8535 1.19711 4.24457 2.35943 4.96702 3.31151L10.2357 10.2549C10.4999 10.603 10.6429 11.028 10.6429 11.4649V11.4649C10.6429 11.9364 10.476 12.3932 10.1725 12.754V12.754C9.90272 13.0747 9.5389 13.3032 9.13282 13.4066L8.37974 13.5984L7.29134 13.7278C7.03764 13.758 6.79669 13.8557 6.59368 14.0108L6.37244 14.1799C6.27026 14.258 6.19624 14.3672 6.16152 14.491V14.491C6.13215 14.5957 6.13215 14.7065 6.16152 14.8112L6.21501 15.002M8.08455 12.3704V12.3704C7.30149 12.3704 6.52256 12.4837 5.77195 12.7067L5.72303 12.7213L4.52778 13.1779C4.4064 13.2243 4.28851 13.2793 4.175 13.3426L4.03083 13.4229C3.72096 13.5955 3.37211 13.6862 3.01739 13.6862H2.98853C2.71546 13.6862 2.44545 13.6287 2.19603 13.5175V13.5175C1.92697 13.3976 1.68864 13.2182 1.49899 12.9927L1.38375 12.8558C1.26054 12.7093 1.17006 12.5382 1.11838 12.3539V12.3539C1.04146 12.0796 1.05377 11.788 1.15355 11.5211L1.16797 11.4826C1.25152 11.2591 1.38825 11.0593 1.56634 10.9006L1.67133 10.807C1.8776 10.6231 2.11911 10.4831 2.38119 10.3955L2.42332 10.3814C2.65368 10.3044 2.89498 10.2651 3.13787 10.2651H3.7551" stroke="white" stroke-linecap="round"/>
</svg>
