<svg width="17" height="17" viewBox="0 0 17 17" fill="none" xmlns="http://www.w3.org/2000/svg">
<path d="M2.83381 12.9854C3.50132 11.5996 3.84763 10.0727 3.84543 8.52524C3.84475 7.77324 4.00828 7.03075 4.3239 6.3529C4.63952 5.67505 5.09911 5.07927 5.66854 4.60979M8.70729 8.52326C8.71111 11.0724 8.08424 13.5805 6.886 15.8099M6.27651 8.52326C6.27651 7.85816 6.53262 7.22031 6.98849 6.75001C7.44436 6.27972 8.06265 6.01551 8.70735 6.01551C9.35205 6.01551 9.97034 6.27972 10.4262 6.75001C10.8821 7.22031 11.1382 7.85816 11.1382 8.52326C11.1417 11.1081 10.5898 13.6616 9.52204 16M15.5867 12.9118C15.8623 11.4663 16.0007 9.99649 16 8.52326C16 6.52797 15.2317 4.6144 13.8641 3.20351C12.4965 1.79263 10.6416 1 8.70748 1C6.77339 1 4.91851 1.79263 3.55089 3.20351C2.18328 4.6144 1.41496 6.52797 1.41496 8.52326C1.41587 9.37745 1.27554 10.2255 1 11.031M6.033 11.031C5.77356 12.3493 5.30886 13.6155 4.65694 14.7805M8.09964 3.54656C8.78391 3.45827 9.47857 3.52105 10.1375 3.73073C10.7965 3.94041 11.4048 4.29221 11.9219 4.76281C12.4391 5.2334 12.8534 5.81203 13.1374 6.46035C13.4213 7.10866 13.5685 7.81184 13.569 8.52326C13.5692 9.36157 13.519 10.1991 13.4186 11.031M12.9561 13.5388C12.8404 14.0026 12.7092 14.4598 12.5625 14.9102" stroke="white" stroke-linecap="round" stroke-linejoin="round"/>
</svg>
