<svg width="15" height="17" viewBox="0 0 15 17" fill="none" xmlns="http://www.w3.org/2000/svg">
<path d="M7.34262 1.00195H5.93484C5.69069 1.00195 5.44699 1.02294 5.20643 1.06469C4.9793 1.1041 4.75575 1.16188 4.53797 1.23747L4.49513 1.25233C4.27362 1.32921 4.05801 1.42216 3.85003 1.53043L3.64052 1.63951C3.36473 1.78308 3.10676 1.95855 2.87192 2.16232C2.63985 2.36367 2.43195 2.59128 2.25237 2.84058L2.12331 3.01974C1.92142 3.30002 1.74468 3.59758 1.59515 3.90896L1.35138 4.41659C1.11871 5.14335 1 5.90263 1 6.66573V6.91621C1 7.60233 1.11888 8.28326 1.35138 8.92878L1.58469 9.53608C1.7404 9.9414 1.96248 10.318 2.24183 10.6504C2.50549 10.9641 2.81679 11.2345 3.16435 11.4516L3.81104 11.8556V13.1909C3.81104 14.7434 5.06958 16.002 6.62207 16.002H9.18921C9.32391 16.002 9.43311 15.8928 9.43311 15.7581V14.2946L9.68263 14.406C10.0587 14.5738 10.4658 14.6605 10.8776 14.6605H11.6198C11.9438 14.6605 12.2539 14.5284 12.4784 14.2946L12.675 14.0899C12.7775 13.9832 12.8624 13.8608 12.9265 13.7274C13.017 13.5389 13.064 13.3324 13.064 13.1233V11.023C13.064 10.6073 13.4011 10.2702 13.8168 10.2702H13.9478C13.9828 10.2702 14.0173 10.2618 14.0483 10.2456C14.1525 10.1914 14.1949 10.0642 14.144 9.95826L14.1182 9.90439L13.5325 8.80683C13.2225 8.08055 13.0398 7.30631 12.9925 6.51804L12.9741 6.21157C12.956 5.90981 12.9114 5.61022 12.8408 5.31627L12.7979 5.13742C12.7412 4.90143 12.6597 4.67213 12.5546 4.45336C12.4263 4.18607 12.2638 3.93655 12.0713 3.71105L11.4243 2.95317L11.1543 2.67211C10.9442 2.45336 10.7163 2.25245 10.4729 2.07145C10.1709 1.84685 9.8466 1.654 9.50505 1.49595L9.43121 1.46178C9.12097 1.31821 8.79674 1.20702 8.46369 1.12996C8.09607 1.0449 7.71996 1.00195 7.34262 1.00195Z" fill="black" fill-opacity="0.8"/>
<path d="M9.43311 14.2946L9.68263 14.406C10.0587 14.5738 10.4658 14.6605 10.8776 14.6605H11.6198C11.9438 14.6605 12.2539 14.5284 12.4784 14.2946V14.2946L12.675 14.0899C12.7775 13.9832 12.8624 13.8608 12.9265 13.7274V13.7274C13.017 13.5389 13.064 13.3324 13.064 13.1233V11.023C13.064 10.6073 13.4011 10.2702 13.8168 10.2702H13.9478C13.9828 10.2702 14.0173 10.2618 14.0483 10.2456V10.2456C14.1525 10.1914 14.1949 10.0642 14.144 9.95826L14.1182 9.90439L13.5325 8.80683V8.80683C13.2225 8.08055 13.0398 7.30631 12.9925 6.51804L12.9741 6.21157C12.956 5.90981 12.9114 5.61022 12.8408 5.31627L12.7979 5.13742C12.7412 4.90143 12.6597 4.67213 12.5546 4.45336V4.45336C12.4263 4.18607 12.2638 3.93655 12.0713 3.71105L11.4243 2.95317L11.1543 2.67211C10.9442 2.45336 10.7163 2.25245 10.4729 2.07145V2.07145C10.1709 1.84685 9.8466 1.654 9.50505 1.49595L9.43121 1.46178C9.12096 1.31821 8.79674 1.20702 8.46369 1.12996V1.12996C8.09607 1.0449 7.71996 1.00195 7.34262 1.00195H5.93484C5.69069 1.00195 5.44699 1.02294 5.20643 1.06469V1.06469C4.9793 1.1041 4.75575 1.16188 4.53797 1.23747L4.49513 1.25233C4.27362 1.32921 4.05801 1.42216 3.85003 1.53043L3.64052 1.63951C3.36473 1.78308 3.10676 1.95855 2.87192 2.16232V2.16232C2.63985 2.36367 2.43195 2.59128 2.25237 2.84058L2.12331 3.01974C1.92142 3.30002 1.74468 3.59758 1.59515 3.90896L1.35138 4.41659V4.41659C1.11871 5.14335 1 5.90263 1 6.66573V6.91621C1 7.60233 1.11888 8.28326 1.35138 8.92878V8.92878L1.58469 9.53608C1.7404 9.9414 1.96248 10.318 2.24183 10.6504V10.6504C2.50549 10.9641 2.81679 11.2345 3.16435 11.4516L3.81104 11.8556M9.43311 14.2946L8.14472 13.6849L7.32483 13.1971M9.43311 14.2946V15.7581V15.7581C9.43311 15.8928 9.32391 16.002 9.18921 16.002H6.62207C5.06958 16.002 3.81104 14.7434 3.81104 13.1909V11.8556M3.81104 11.8556L4.16242 12.0995L4.5138 12.3434" stroke="white"/>
</svg>
