<svg width="14" height="16" viewBox="0 0 14 16" fill="none" xmlns="http://www.w3.org/2000/svg">
<path d="M13.0267 6.40613L7.4463 1.08715C7.24133 0.890366 6.97348 0.78123 6.69556 0.78125C6.41763 0.78127 6.1498 0.890444 5.94485 1.08725L0.365373 6.40609C0.250422 6.51584 0.158564 6.64952 0.0956655 6.79859C0.032767 6.94765 0.000210507 7.10883 7.48625e-05 7.27184V14.0065C-0.00312534 14.3006 0.0963729 14.5857 0.279816 14.8081C0.384323 14.9327 0.513013 15.0324 0.657262 15.1005C0.801511 15.1687 0.957987 15.2037 1.1162 15.2033H4.46158C4.60957 15.2033 4.7515 15.1416 4.85615 15.0319C4.96079 14.9222 5.01958 14.7734 5.01958 14.6182V11.1076C5.01958 10.9524 5.07837 10.8036 5.18301 10.6939C5.28766 10.5842 5.42959 10.5226 5.57758 10.5226H7.80956C7.95755 10.5226 8.09947 10.5842 8.20412 10.6939C8.30876 10.8036 8.36755 10.9524 8.36755 11.1076V14.6182C8.36755 14.7734 8.42634 14.9222 8.53098 15.0319C8.63563 15.1416 8.77756 15.2033 8.92555 15.2033H12.2775C12.4609 15.2058 12.6418 15.1591 12.803 15.0676C12.981 14.9668 13.1297 14.8175 13.2334 14.6354C13.337 14.4534 13.3918 14.2453 13.392 14.0332V7.27187C13.3918 7.10888 13.3593 6.9477 13.2964 6.79864C13.2335 6.64958 13.1417 6.5159 13.0267 6.40613Z" fill="white"/>
</svg>
