<svg width="35" height="39" viewBox="0 0 35 39" fill="none" xmlns="http://www.w3.org/2000/svg">
<path d="M17.6991 1.01489C19.3525 1.01489 20.7629 1.01312 20.8303 1.01134C21.0716 1.00602 21.1585 1.01134 21.1585 1.03086C21.1585 1.06634 21.0858 1.15859 21.0059 1.22246C20.8622 1.33954 20.8516 1.34664 20.8392 1.34664C20.8179 1.34664 20.6795 1.49388 20.6706 1.52582C20.6635 1.54356 20.6423 1.56307 20.621 1.57017C20.5997 1.57726 20.5145 1.65177 20.4311 1.73515C20.3478 1.81853 20.2449 1.91965 20.2005 1.95691C20.0941 2.04916 19.7641 2.35784 19.5193 2.59202C19.4111 2.69668 19.2993 2.80135 19.2709 2.82264C19.2053 2.87409 19.0314 3.03552 18.8363 3.22712C18.6748 3.38678 18.1355 3.89948 18.0451 3.97931C18.0167 4.00593 17.9244 4.09285 17.841 4.17269C17.7577 4.25429 17.6548 4.34654 17.6104 4.38025C17.5678 4.41395 17.4703 4.50266 17.3958 4.57539C17.1456 4.82021 16.8547 5.09696 16.7482 5.19453C16.6915 5.24598 16.5247 5.40209 16.3792 5.54047C16.2338 5.67707 16.0989 5.80125 16.0777 5.81545C16.0581 5.82964 15.9801 5.89883 15.9073 5.96979C15.8346 6.03898 15.7495 6.12058 15.7193 6.14719C15.6909 6.17558 15.5472 6.3104 15.4 6.447C15.2545 6.58183 15.0629 6.76278 14.976 6.84616C14.795 7.01647 14.6868 7.11582 14.5325 7.25242C14.4739 7.30387 14.3302 7.44047 14.2131 7.55401C13.9541 7.80592 13.5355 8.19976 13.4645 8.25653C13.4379 8.27959 13.3385 8.37184 13.2463 8.46054C13.154 8.54924 13.0192 8.6752 12.9482 8.74084C12.8773 8.80648 12.7407 8.93599 12.6467 9.02824C12.5526 9.12226 12.3504 9.30853 12.1996 9.44514C12.0488 9.57996 11.8501 9.75914 11.7579 9.84252C11.5698 10.0128 11.0997 10.4634 10.9223 10.6444C10.8052 10.7632 10.752 10.8023 10.7023 10.8023C10.6792 10.8023 10.6828 10.7828 10.7218 10.6905C10.7467 10.6302 10.775 10.5734 10.7839 10.5628C10.791 10.5539 10.7981 10.5362 10.7981 10.5238C10.7981 10.5113 10.8176 10.4599 10.8407 10.4084C10.8637 10.357 10.9152 10.2151 10.9542 10.0927C11.0394 9.83365 11.1955 9.39724 11.231 9.32095C11.2452 9.2908 11.2877 9.17193 11.325 9.05485C11.3623 8.93776 11.4031 8.83132 11.4137 8.8189C11.4261 8.80648 11.4421 8.77455 11.4474 8.74794C11.4705 8.64859 11.5574 8.35942 11.5858 8.29201C11.6035 8.25298 11.6479 8.1288 11.6851 8.01703C11.7224 7.90527 11.7862 7.72077 11.827 7.609C11.8679 7.49724 11.9087 7.3766 11.9175 7.3429C11.9282 7.30919 11.9495 7.24887 11.9672 7.20984C11.9849 7.17081 12.0062 7.11227 12.0133 7.08211C12.0186 7.05018 12.0577 6.94196 12.0967 6.84262C12.1925 6.5978 12.3238 6.20929 12.3238 6.16848C12.3238 6.15074 12.3291 6.13655 12.338 6.13655C12.3451 6.13655 12.3823 6.04252 12.4196 5.92721C12.4568 5.81367 12.5101 5.65578 12.5402 5.57773C12.5686 5.49967 12.6076 5.39145 12.6289 5.33823C12.6484 5.28501 12.6821 5.19276 12.707 5.13422C12.7868 4.93375 12.8737 4.65522 12.8737 4.59668C12.8737 4.5612 12.8826 4.53991 12.8986 4.53991C12.9128 4.53991 12.9429 4.4725 12.9784 4.35718C13.0103 4.25784 13.0511 4.13188 13.0707 4.07866C13.1753 3.79481 13.296 3.45242 13.5567 2.70378C13.7661 2.1006 14.0783 1.2331 14.1475 1.05924C14.1581 1.0344 14.1812 1.0078 14.1989 1.00247C14.2167 0.998925 14.3355 0.998924 14.4615 1.00425C14.5892 1.00957 16.0457 1.01489 17.6991 1.01489ZM21.9444 1.26148C21.9586 1.29342 21.9923 1.39099 22.0189 1.47969C22.0455 1.56662 22.0775 1.65532 22.0899 1.67661C22.1023 1.69612 22.1254 1.75289 22.1396 1.80257C22.1537 1.85046 22.2158 2.02255 22.2762 2.18221C22.3365 2.34188 22.4003 2.5175 22.4181 2.57073C22.5068 2.83506 22.6168 3.13487 22.6558 3.21648C22.7463 3.4063 22.7427 3.4134 22.4944 3.64047C22.2886 3.82852 21.9852 4.14253 21.9267 4.22946C21.9054 4.26139 21.8575 4.30574 21.8202 4.3288C21.783 4.35009 21.6339 4.48492 21.4867 4.62861C21.3412 4.77054 21.1053 4.99939 20.9634 5.13422C20.8214 5.26904 20.6015 5.4837 20.4737 5.61143C20.2715 5.81367 20.0941 5.98398 19.4945 6.56054C19.4288 6.62441 19.2159 6.83197 19.0208 7.02357C18.8256 7.21339 18.4903 7.53804 18.2757 7.74206C18.0628 7.94785 17.7257 8.27427 17.527 8.46941C16.695 9.29257 16.1362 9.83365 15.4851 10.4563C15.2456 10.6834 14.6087 11.3043 14.3444 11.5651C14.222 11.6875 13.8796 12.0228 13.5851 12.3102C13.2889 12.5976 12.9979 12.8815 12.9376 12.94C12.8791 12.9985 12.6094 13.2593 12.3415 13.5201C11.7721 14.0736 11.765 14.0789 11.0021 14.8223C10.6792 15.1363 10.3351 15.4716 10.234 15.5673C10.1328 15.6649 9.88802 15.9026 9.69111 16.0978C9.27953 16.5023 8.98149 16.7932 8.50073 17.2545C8.31445 17.4319 8.14769 17.6022 8.12818 17.6323C8.10866 17.6625 8.07141 17.698 8.0448 17.7104C7.9898 17.7388 7.9898 17.7352 8.05721 17.588C8.08028 17.5383 8.10866 17.4549 8.12108 17.4017C8.14059 17.3095 8.15479 17.274 8.25768 17.0469C8.28252 16.9937 8.32864 16.8766 8.36058 16.7897C8.39251 16.701 8.43863 16.5821 8.46347 16.5236C8.48653 16.465 8.52379 16.3568 8.5433 16.2805C8.56282 16.206 8.59652 16.1173 8.61604 16.0836C8.63555 16.0499 8.68345 15.9399 8.72071 15.8388C8.75796 15.7377 8.82005 15.5815 8.85553 15.4946C8.96552 15.2285 9.01874 15.0937 9.11277 14.8364C9.29195 14.3521 9.43919 13.9689 9.58821 13.5964C9.68756 13.3516 9.75852 13.1529 9.794 13.0376C9.83658 12.8885 9.90576 12.7945 10.0991 12.6224C10.2765 12.4628 10.9986 11.7567 11.2398 11.5048C11.3126 11.4303 11.3924 11.3522 11.4172 11.3327C11.4953 11.2706 11.6621 11.1145 12.0311 10.7526C12.4923 10.302 12.7868 10.0199 13.1186 9.70237C13.2658 9.56045 13.5301 9.30499 13.704 9.13468C13.8778 8.96437 14.0783 8.76745 14.151 8.70004C14.2238 8.63085 14.3089 8.54747 14.3391 8.51376C14.3693 8.48006 14.4189 8.43039 14.4509 8.40377C14.4828 8.37894 14.701 8.17137 14.9352 7.94252C15.1693 7.71545 15.4585 7.43337 15.5809 7.31629C15.7016 7.1992 16.0298 6.87987 16.31 6.60667C16.5903 6.33169 16.8813 6.05317 16.954 5.98576C17.0268 5.91834 17.2237 5.72675 17.3904 5.55999C17.5554 5.395 17.7523 5.20518 17.8251 5.13954C17.8978 5.07567 18.1728 4.80957 18.4354 4.54878C18.6997 4.288 18.9551 4.0414 19.003 3.99883C19.1059 3.9119 19.129 3.88884 19.741 3.28921C20.5447 2.49976 20.841 2.21237 21.2029 1.86998C21.398 1.6837 21.6286 1.4584 21.7156 1.3697C21.8007 1.27922 21.8823 1.20471 21.8947 1.20471C21.9071 1.20471 21.9302 1.23133 21.9444 1.26148ZM23.3956 5.3542C23.424 5.4358 23.4559 5.55112 23.4665 5.61143C23.4789 5.66998 23.5162 5.77997 23.5499 5.8527C23.6156 5.9964 23.6989 6.19864 23.7486 6.33879C23.7912 6.4541 23.7734 6.50023 23.6457 6.61022C23.5588 6.68295 22.725 7.50256 21.8841 8.33636C21.7422 8.47828 21.5346 8.6823 21.4228 8.78874C21.3111 8.89696 21.2029 9.0034 21.1816 9.02824C21.1603 9.05307 21.0148 9.19677 20.8587 9.34756C20.7008 9.49836 20.346 9.84607 20.0692 10.1193C19.7925 10.3925 19.2851 10.891 18.9392 11.228C18.5932 11.5651 18.242 11.9111 18.1568 11.998C17.9776 12.1807 17.9972 12.1896 17.9297 11.9022C17.8925 11.7407 17.8552 11.6041 17.763 11.2901C17.6654 10.9584 17.6441 10.8715 17.6424 10.8041C17.6424 10.7349 17.6512 10.7242 18.1001 10.2754C18.3537 10.0235 18.6429 9.73785 18.7458 9.64205C19.0101 9.39191 19.5246 8.88454 19.8457 8.55457C19.9965 8.40022 20.2236 8.17847 20.3495 8.06138C20.4737 7.9443 20.7185 7.70657 20.8906 7.53272C21.0627 7.35886 21.3554 7.06614 21.5399 6.88519C21.8539 6.57651 22.1413 6.29444 22.5192 5.92012C22.6043 5.83496 22.7977 5.64159 22.9467 5.4908C23.0958 5.34001 23.2288 5.21227 23.2395 5.20695C23.2519 5.20163 23.2803 5.19986 23.3033 5.20163C23.3406 5.20518 23.353 5.22469 23.3956 5.3542ZM24.7492 8.98743C24.7545 9.00517 24.7669 9.06017 24.7758 9.10984C24.7864 9.16129 24.8219 9.26241 24.8556 9.33869C24.8911 9.4132 24.9354 9.53916 24.9567 9.61899C25.0135 9.84962 25.0632 10.0093 25.0898 10.0501C25.1022 10.0714 25.1395 10.1902 25.1749 10.3162C25.2086 10.4421 25.2459 10.5681 25.2583 10.5983C25.2867 10.6675 25.4375 11.0968 25.5226 11.3434C25.5599 11.4498 25.606 11.5775 25.6273 11.6254C25.6486 11.6733 25.7018 11.8365 25.7444 11.9891C25.787 12.1417 25.8775 12.4308 25.9466 12.6313C26.0141 12.8318 26.0868 13.0589 26.1081 13.1369C26.1294 13.2132 26.1666 13.3125 26.1879 13.3569C26.211 13.4012 26.2411 13.4811 26.2571 13.5343C26.2731 13.5875 26.321 13.7312 26.3635 13.8536C26.4061 13.976 26.4682 14.1659 26.4984 14.2776C26.5303 14.3894 26.5676 14.5082 26.5835 14.5437C26.5995 14.5792 26.6438 14.7194 26.6846 14.856C26.7254 14.9926 26.8017 15.2196 26.8532 15.3616C26.9028 15.5035 26.9845 15.727 27.0306 15.8583C27.0767 15.9896 27.1352 16.1528 27.1601 16.222C27.1849 16.2894 27.2293 16.4331 27.2594 16.5413C27.2878 16.6477 27.3694 16.8997 27.4368 17.1001C27.506 17.3006 27.5788 17.5277 27.6 17.6057C27.6213 17.6838 27.6533 17.7796 27.6728 17.8186C27.7189 17.9144 27.8928 18.4165 27.9549 18.6347C27.9815 18.7322 28.0258 18.8724 28.0507 18.9451C28.0773 19.0179 28.1323 19.1899 28.1748 19.3265C28.2174 19.4631 28.2972 19.7026 28.3522 19.8588C28.4072 20.0149 28.4693 20.1905 28.4888 20.249C28.5084 20.3076 28.5598 20.4424 28.6006 20.5506C28.6432 20.6571 28.6982 20.8292 28.7248 20.932C28.7514 21.0349 28.7887 21.1627 28.8064 21.2159C28.8259 21.2691 28.8738 21.4128 28.9146 21.5352C28.9536 21.6576 29.0051 21.8067 29.0282 21.867C29.0512 21.9273 29.0707 21.9876 29.0707 22.0018C29.0707 22.016 29.0991 22.1065 29.1346 22.204C29.3049 22.6759 29.4131 22.9935 29.4433 23.1052C29.4628 23.1727 29.5018 23.3004 29.532 23.3891C29.5852 23.5434 29.6207 23.6534 29.7147 23.9568C29.7395 24.0348 29.7999 24.2105 29.8478 24.3471C29.8974 24.4837 29.956 24.6469 29.9773 24.7108C29.9985 24.7746 30.0518 24.9183 30.0943 25.0301C30.1369 25.1418 30.2026 25.3459 30.2416 25.4825C30.2806 25.6191 30.364 25.8869 30.4279 26.0768C30.4935 26.2666 30.568 26.499 30.5946 26.5912C30.623 26.6853 30.6549 26.7811 30.6674 26.8041C30.7028 26.8698 30.8767 27.3718 30.9335 27.5758C30.9619 27.6734 31.0098 27.8242 31.0399 27.9129C31.0701 27.9998 31.1268 28.179 31.1659 28.3103C31.2049 28.4416 31.2404 28.5551 31.2475 28.5657C31.2546 28.5764 31.3025 28.7094 31.3557 28.8602C31.4089 29.0128 31.4852 29.2328 31.5278 29.3499C31.5703 29.467 31.6236 29.6178 31.6484 29.6869C31.6732 29.7544 31.7176 29.8981 31.7478 30.0063C31.7761 30.1127 31.8613 30.3806 31.9358 30.5988C32.0085 30.8188 32.0813 31.0441 32.0972 31.1026C32.1114 31.1612 32.1398 31.2428 32.1593 31.2818C32.2019 31.3741 32.3633 31.83 32.4095 31.9932C32.429 32.0606 32.4769 32.2132 32.5159 32.3303C32.5532 32.4473 32.6046 32.607 32.6294 32.6851C32.7093 32.9494 32.7394 33.0399 32.8406 33.3237C32.8973 33.4798 32.9576 33.6555 32.9772 33.714C32.9967 33.7726 33.0464 33.9074 33.0889 34.0156C33.1297 34.122 33.1865 34.2924 33.2113 34.3935C33.2379 34.4946 33.2912 34.6702 33.3302 34.7838C33.3692 34.8973 33.4207 35.0516 33.4437 35.1244C33.4668 35.1971 33.497 35.2858 33.5112 35.3195C33.5271 35.355 33.5555 35.449 33.5768 35.5289C33.5963 35.6105 33.6336 35.7222 33.6584 35.7772C33.7205 35.9174 33.8713 36.3556 33.9316 36.5702C33.96 36.6678 34.0026 36.8044 34.0274 36.8718C34.0522 36.941 34.1055 37.0953 34.1463 37.2177C34.1871 37.3402 34.2367 37.4909 34.2598 37.5548C34.3946 37.9309 34.3999 37.9469 34.3733 37.9735C34.3485 37.9965 31.9677 38.0036 25.9928 37.9983C25.7887 37.9983 25.6096 37.9912 25.5989 37.9841C25.5865 37.9753 25.5599 37.899 25.5404 37.8103C25.5209 37.7233 25.4801 37.5637 25.4499 37.4572C25.4198 37.349 25.3896 37.2337 25.3807 37.2C25.363 37.1255 25.3027 36.9463 25.2477 36.8008C25.2264 36.7423 25.2015 36.666 25.1944 36.6323C25.1749 36.5347 25.0969 36.2793 25.0525 36.1622C25.0295 36.1036 25.0064 36.0203 24.9993 35.9759C24.994 35.9316 24.9691 35.8358 24.9461 35.763C24.9248 35.6903 24.884 35.5572 24.8592 35.4703C24.79 35.2344 24.735 35.057 24.6463 34.7696C24.6019 34.6276 24.554 34.4644 24.5398 34.4059C24.5026 34.2445 24.4298 33.9979 24.3677 33.8205C24.3376 33.7318 24.2844 33.565 24.2507 33.4479C24.217 33.3308 24.1726 33.1836 24.1531 33.1197C24.0874 32.8997 24.0449 32.7543 23.9952 32.5786C23.9065 32.2558 23.7699 31.7998 23.7344 31.7005C23.7149 31.6473 23.683 31.5426 23.6617 31.4699C23.6404 31.3971 23.6067 31.2924 23.5872 31.2392C23.5694 31.186 23.5375 31.0742 23.5198 30.9909C23.4789 30.817 23.4133 30.5811 23.3619 30.4303C23.2998 30.2493 23.2572 30.0985 23.2341 29.9885C23.2217 29.93 23.2057 29.8732 23.1987 29.8643C23.1845 29.8466 23.1632 29.7774 23.0851 29.5095C23.0585 29.4208 23.023 29.302 23.0053 29.2434C22.9858 29.1849 22.945 29.0483 22.9148 28.9418C22.8829 28.8336 22.8421 28.6988 22.8243 28.6403C22.8066 28.5817 22.78 28.4859 22.7658 28.4274C22.7374 28.3138 22.686 28.14 22.544 27.6645C22.4944 27.4978 22.4376 27.3026 22.4163 27.2299C22.395 27.1572 22.3507 27.0135 22.317 26.9106C22.2353 26.6551 22.0881 26.1601 22.0278 25.9348C22.0012 25.832 21.9621 25.6847 21.9409 25.6066C21.9213 25.5286 21.8859 25.408 21.861 25.3405C21.8167 25.2057 21.8131 25.1986 21.7173 24.8704C21.6127 24.5138 21.547 24.301 21.5098 24.1981C21.492 24.1448 21.4654 24.049 21.4512 23.9852C21.437 23.9213 21.4015 23.7847 21.3696 23.6818C21.3075 23.4707 21.2454 23.2507 21.194 23.0698C21.1762 23.0006 21.1266 22.8533 21.0875 22.7416C21.0467 22.6298 21.0024 22.4897 20.99 22.4311C20.9474 22.2555 20.8658 21.9663 20.7895 21.7304C20.6635 21.3348 20.5713 21.0332 20.5305 20.87C20.4737 20.6482 20.4329 20.5134 20.3957 20.4087C20.3797 20.359 20.3353 20.2118 20.2999 20.0805C20.2626 19.9492 20.2183 19.8055 20.2005 19.7612C20.1828 19.7168 20.1562 19.6335 20.1402 19.5749C20.0959 19.3975 19.9043 18.7464 19.8209 18.4839C19.796 18.4111 19.7481 18.2462 19.7127 18.1202C19.592 17.6944 19.5654 17.6057 19.5086 17.4372C19.4785 17.3449 19.4359 17.2083 19.4182 17.1356C19.3987 17.0629 19.3685 16.9582 19.3508 16.905C19.2532 16.6105 19.1982 16.4278 19.1343 16.1865C19.1166 16.1173 19.0864 16.0144 19.0687 15.9559C19.0492 15.8973 19.0155 15.782 18.9959 15.6986C18.9427 15.4911 18.9161 15.4006 18.8452 15.1842C18.8114 15.0813 18.7494 14.8861 18.7086 14.7495C18.6695 14.6129 18.6181 14.4462 18.595 14.3787C18.5684 14.3007 18.5595 14.2421 18.5666 14.2191C18.5755 14.1978 18.6358 14.1392 18.7032 14.0878C18.7706 14.0364 18.8824 13.9441 18.9498 13.882C19.019 13.8199 19.1343 13.7223 19.2071 13.6638C19.2798 13.6053 19.372 13.5237 19.4111 13.4811C19.4501 13.4403 19.5228 13.3782 19.5707 13.3427C19.6204 13.3072 19.6931 13.2469 19.734 13.2097C19.7748 13.1724 19.8422 13.1156 19.8847 13.0855C19.9557 13.034 20.0355 12.9648 20.1721 12.8353C20.2023 12.8087 20.2626 12.7555 20.307 12.7218C20.3513 12.6863 20.4276 12.6207 20.4755 12.5763C20.5252 12.532 20.5961 12.4716 20.6352 12.4433C20.6742 12.4131 20.7487 12.3475 20.8037 12.296C20.8569 12.2428 20.9438 12.1683 20.9971 12.1275C21.0503 12.0867 21.1301 12.0175 21.1745 11.9767C21.2188 11.9341 21.3004 11.8702 21.3537 11.8348C21.4069 11.7975 21.492 11.7248 21.5435 11.6698C21.5967 11.6148 21.6836 11.535 21.7368 11.4924C21.861 11.3948 21.8947 11.3646 21.9834 11.2848C22.0225 11.2493 22.0828 11.1979 22.1165 11.1731C22.1502 11.1464 22.2123 11.095 22.2513 11.0577C22.356 10.9602 22.4145 10.9087 22.5068 10.8395C22.5511 10.8058 22.67 10.7012 22.7729 10.6071C22.8758 10.5131 23.0035 10.4013 23.0567 10.3588C23.11 10.3144 23.1862 10.247 23.2253 10.2062C23.2643 10.1672 23.3282 10.1122 23.3672 10.0838C23.4754 10.004 23.4967 9.98622 23.6226 9.87091C23.6865 9.81236 23.7717 9.73963 23.8089 9.71124C23.848 9.68108 23.9242 9.61722 23.9792 9.56932C24.0342 9.51964 24.1549 9.41852 24.2471 9.34401C24.3394 9.2695 24.444 9.17548 24.4795 9.13645C24.5363 9.07259 24.6959 8.95727 24.7261 8.95727C24.7332 8.95727 24.7438 8.97146 24.7492 8.98743ZM16.7944 12.4699C16.7944 13.2238 16.7908 13.3338 16.766 13.3711C16.7323 13.4225 16.7482 13.4066 15.9162 14.2173C15.5667 14.5579 15.2119 14.9056 15.1268 14.989C14.9866 15.1292 14.0801 16.0162 13.4113 16.669C13.2534 16.8234 12.9181 17.148 12.6662 17.3928C12.4143 17.6359 11.9743 18.067 11.6887 18.3508C11.4031 18.6329 11.0092 19.0214 10.8123 19.2112C10.6154 19.4011 10.2854 19.7239 10.0796 19.9297C9.87383 20.1337 9.48354 20.5169 9.21034 20.7813C8.93714 21.0438 8.61249 21.3596 8.49008 21.482C8.36767 21.6044 8.12818 21.835 7.95964 21.9965C7.68467 22.259 7.211 22.7132 7.09214 22.8303C7.0673 22.8551 7.0123 22.9119 6.97328 22.9545C6.93247 22.9988 6.78523 23.1425 6.64685 23.2738C6.50848 23.4051 6.36478 23.5452 6.3293 23.5825C6.12351 23.8024 6.09867 23.8273 6.06674 23.8202C6.01529 23.8113 6.01884 23.7599 6.08626 23.6197C6.12174 23.5452 6.15012 23.4743 6.15012 23.4601C6.15012 23.4459 6.15722 23.4317 6.16609 23.4264C6.17496 23.421 6.21931 23.3022 6.26543 23.1638C6.31156 23.0236 6.37897 22.8338 6.41623 22.7416C6.45171 22.6493 6.48719 22.55 6.49428 22.5198C6.50138 22.4914 6.53331 22.4027 6.56702 22.3247C6.59895 22.2466 6.6433 22.126 6.66459 22.0586C6.68588 21.9894 6.72314 21.906 6.7462 21.8687C6.76926 21.8333 6.98569 21.6062 7.22696 21.3631C7.47001 21.1219 7.74853 20.8345 7.8461 20.728C7.94545 20.6198 8.26123 20.2969 8.54685 20.0078C9.13406 19.4152 10.4327 18.0936 10.7041 17.8097C10.8034 17.7068 11.1671 17.3378 11.5148 16.9901C11.8608 16.6406 12.1836 16.3089 12.2298 16.2539C12.2777 16.1971 12.4959 15.9718 12.7141 15.7518C12.9341 15.5319 13.3527 15.1061 13.6454 14.8045C13.9382 14.5047 14.2486 14.1889 14.3338 14.1038C14.4207 14.0204 14.5484 13.8927 14.6176 13.8199C14.6886 13.7472 14.7968 13.6354 14.8607 13.5716C14.9245 13.5077 15.0664 13.3587 15.1747 13.2416C15.2829 13.1245 15.5809 12.8176 15.8364 12.5586C16.0918 12.2996 16.3402 12.0441 16.3863 11.9909C16.4342 11.9377 16.5212 11.8578 16.5797 11.8135C16.6382 11.7691 16.6932 11.7177 16.6986 11.6982C16.7128 11.652 16.7607 11.5988 16.7802 11.6041C16.789 11.6077 16.7944 11.9962 16.7944 12.4699ZM15.0327 17.8576C15.0274 17.8754 15.0097 17.925 14.9937 17.9694C14.9653 18.0439 14.9174 18.2195 14.8429 18.5105C14.8252 18.5779 14.7791 18.7535 14.7383 18.9008C14.6957 19.0462 14.646 19.2272 14.6265 19.2999C14.5839 19.4489 14.52 19.7115 14.4686 19.9386C14.4509 20.022 14.403 20.1976 14.3657 20.3289C14.3267 20.4602 14.2859 20.6145 14.2752 20.6713C14.2628 20.7298 14.2433 20.8025 14.2291 20.8363C14.2149 20.87 14.1759 21.0208 14.1422 21.1698C14.1085 21.3188 14.0694 21.4767 14.0552 21.5193C14.0251 21.6097 13.9559 21.8776 13.9009 22.1207C13.8814 22.2129 13.853 22.3052 13.8406 22.3247C13.8211 22.3548 13.7696 22.5695 13.7306 22.7771C13.727 22.8019 13.704 22.8817 13.6809 22.9545C13.6064 23.1869 13.5869 23.2596 13.539 23.4867C13.5124 23.6091 13.4787 23.735 13.4645 23.7687C13.4503 23.8024 13.4166 23.939 13.3882 24.0703C13.3598 24.2034 13.3226 24.3595 13.3031 24.418C13.2285 24.6487 13.2108 24.7196 13.1487 24.9964C13.1132 25.1543 13.0742 25.2997 13.06 25.3193C13.0369 25.353 13.0103 25.4576 12.9642 25.7042C12.9465 25.7929 12.9181 25.9047 12.8436 26.1655C12.8152 26.2648 12.7708 26.4511 12.7212 26.6711C12.707 26.7385 12.6875 26.8024 12.6786 26.813C12.6715 26.8219 12.6502 26.8911 12.6342 26.9638C12.6165 27.0365 12.581 27.1678 12.5544 27.2565C12.5278 27.3434 12.4959 27.4605 12.4834 27.5137C12.471 27.567 12.4338 27.7071 12.4001 27.8242C12.3664 27.9413 12.3185 28.1293 12.2954 28.2411C12.2528 28.4504 12.2369 28.5143 12.1588 28.7733C12.134 28.8567 12.1003 28.988 12.0843 29.066C12.0683 29.1441 12.0328 29.2754 12.0045 29.3587C11.937 29.5592 11.9051 29.6798 11.8803 29.8289C11.8696 29.8963 11.8288 30.0524 11.7916 30.1748C11.7525 30.2972 11.71 30.448 11.6958 30.5119C11.6816 30.5757 11.6585 30.6751 11.6426 30.7336C11.5592 31.0618 11.49 31.351 11.4669 31.4521C11.4527 31.516 11.4102 31.6863 11.3711 31.8335C11.3321 31.979 11.2913 32.1316 11.2806 32.1706C11.27 32.2096 11.2398 32.309 11.215 32.3924C11.1884 32.4757 11.1529 32.623 11.1334 32.7206C11.1157 32.8181 11.0802 32.9618 11.0571 33.0399C11.0323 33.1179 10.9933 33.2474 10.9684 33.329C10.9436 33.4107 10.9223 33.4905 10.9223 33.5082C10.9223 33.5384 10.8779 33.7105 10.8229 33.8914C10.7768 34.0458 10.7626 34.1008 10.7271 34.2728C10.7076 34.3651 10.6686 34.5248 10.6402 34.6276C10.6118 34.7305 10.5799 34.853 10.5675 34.9026C10.5551 34.9505 10.5267 35.0552 10.5036 35.1332C10.4504 35.3213 10.3723 35.6122 10.3635 35.6619C10.3581 35.6832 10.3369 35.7684 10.312 35.8517C10.289 35.9351 10.2482 36.0948 10.2215 36.2065C10.1949 36.3183 10.1559 36.4709 10.1328 36.5436C10.1098 36.6163 10.0672 36.7955 10.0353 36.9428C10.0033 37.0882 9.96431 37.2408 9.94657 37.2798C9.92883 37.3189 9.90754 37.3898 9.89689 37.4395C9.88625 37.4874 9.86141 37.5796 9.8419 37.6417C9.82061 37.7038 9.80464 37.8014 9.80464 37.8582C9.80464 37.9416 9.79755 37.9646 9.77094 37.9788C9.73013 38.0019 1.02492 38.0072 1.00185 37.9841C0.984113 37.9664 1.09765 37.5548 1.17394 37.3685C1.20409 37.2905 1.24667 37.1787 1.26796 37.1202C1.33183 36.9304 1.46843 36.572 1.49681 36.517C1.511 36.4868 1.55713 36.3644 1.59971 36.242C1.64051 36.1196 1.6955 35.9635 1.72212 35.8961C1.74873 35.8269 1.78775 35.7169 1.80549 35.6495C1.82501 35.5821 1.85339 35.504 1.86936 35.4739C1.88355 35.4437 1.935 35.3142 1.98113 35.1865C2.10886 34.8334 2.19224 34.6117 2.23836 34.5035C2.25965 34.4502 2.30045 34.3296 2.32884 34.2374C2.35545 34.1451 2.38915 34.0475 2.40157 34.0209C2.41399 33.9943 2.46721 33.8471 2.52043 33.6927C2.57365 33.5384 2.63397 33.3681 2.65526 33.3149C2.67655 33.2616 2.7209 33.141 2.75283 33.0487C2.81492 32.8696 2.89121 32.6673 2.97813 32.442C3.00652 32.3657 3.06506 32.199 3.10764 32.0695C3.15022 31.94 3.20521 31.7821 3.23182 31.7182C3.25843 31.6544 3.29746 31.5461 3.32053 31.4787C3.40923 31.2179 3.52277 30.9057 3.5476 30.856C3.56179 30.8277 3.6026 30.7212 3.6363 30.6183C3.67178 30.5154 3.73565 30.3416 3.77823 30.2333C3.82258 30.1234 3.86338 30.008 3.87048 29.9761C3.87757 29.9442 3.90241 29.8821 3.92547 29.8377C3.94676 29.7934 3.98934 29.6763 4.0195 29.577C4.04788 29.4776 4.08869 29.357 4.10997 29.3108C4.13126 29.2647 4.18448 29.121 4.22529 28.9951C4.33705 28.6615 4.45059 28.3635 4.48607 28.3138C4.50736 28.2837 5.45115 27.3186 5.66758 27.1022C5.70484 27.0667 7.12052 25.6528 7.13471 25.6386C7.14536 25.6279 8.8165 23.9568 10.8513 21.922C12.8862 19.8889 14.6371 18.1362 14.7436 18.0262C14.905 17.8612 14.9458 17.8275 14.9902 17.8275C15.031 17.8275 15.0398 17.8346 15.0327 17.8576Z" stroke="white"/>
</svg>
