<svg width="37" height="37" viewBox="0 0 37 37" fill="none" xmlns="http://www.w3.org/2000/svg">
<path d="M13.6926 14.8023C13.6926 15.8234 12.8648 16.6512 11.8437 16.6512C10.8226 16.6512 9.99479 15.8234 9.99479 14.8023C9.99479 13.7812 10.8226 12.9534 11.8437 12.9534C12.8648 12.9534 13.6926 13.7812 13.6926 14.8023Z" fill="white"/>
<path d="M25.1555 16.6512C26.1766 16.6512 27.0044 15.8234 27.0044 14.8023C27.0044 13.7812 26.1766 12.9534 25.1555 12.9534C24.1344 12.9534 23.3066 13.7812 23.3066 14.8023C23.3066 15.8234 24.1344 16.6512 25.1555 16.6512Z" fill="white"/>
<path d="M26.8384 23.3137C27.0457 22.9547 26.9228 22.4956 26.5638 22.2883C26.2049 22.081 25.7458 22.204 25.5385 22.5629C24.8251 23.7982 23.7992 24.8239 22.5639 25.537C21.3285 26.2501 19.9272 26.6256 18.5008 26.6256C17.0744 26.6256 15.6731 26.2502 14.4377 25.5371C13.2024 24.8239 12.1764 23.7982 11.463 22.563C11.2557 22.2041 10.7967 22.0811 10.4377 22.2884C10.0788 22.4958 9.95582 22.9548 10.1631 23.3138C11.0083 24.7771 12.2237 25.9923 13.6873 26.8371C15.1508 27.682 16.8109 28.1267 18.5008 28.1267C20.1907 28.1267 21.8508 27.6819 23.3144 26.8371C24.7779 25.9922 25.9933 24.777 26.8384 23.3137Z" fill="white"/>
<path fill-rule="evenodd" clip-rule="evenodd" d="M18.5 0C8.28273 0 0 8.28273 0 18.5C0 28.7173 8.28273 37 18.5 37C28.7173 37 37 28.7173 37 18.5C37 8.28273 28.7173 0 18.5 0ZM1.50113 18.5C1.50113 9.11178 9.11178 1.50113 18.5 1.50113C27.8882 1.50113 35.4989 9.11178 35.4989 18.5C35.4989 27.8882 27.8882 35.4989 18.5 35.4989C9.11178 35.4989 1.50113 27.8882 1.50113 18.5Z" fill="white"/>
</svg>
