<svg width="37" height="37" viewBox="0 0 37 37" fill="none" xmlns="http://www.w3.org/2000/svg">
<path fill-rule="evenodd" clip-rule="evenodd" d="M9.81633 18.5C9.81633 13.7041 13.7041 9.81633 18.5 9.81633C23.2959 9.81633 27.1837 13.7041 27.1837 18.5C27.1837 23.2959 23.2959 27.1837 18.5 27.1837C13.7041 27.1837 9.81633 23.2959 9.81633 18.5ZM18.5 12.0816C14.9552 12.0816 12.0816 14.9552 12.0816 18.5C12.0816 22.0448 14.9552 24.9184 18.5 24.9184C22.0448 24.9184 24.9184 22.0448 24.9184 18.5C24.9184 14.9552 22.0448 12.0816 18.5 12.0816Z" fill="white"/>
<path d="M30.2041 8.68367C30.2041 9.72625 29.3589 10.5714 28.3163 10.5714C27.2737 10.5714 26.4286 9.72625 26.4286 8.68367C26.4286 7.6411 27.2737 6.79592 28.3163 6.79592C29.3589 6.79592 30.2041 7.6411 30.2041 8.68367Z" fill="white"/>
<path fill-rule="evenodd" clip-rule="evenodd" d="M0 10.1939C0 4.56395 4.56395 0 10.1939 0H26.8061C32.436 0 37 4.56395 37 10.1939V26.8061C37 32.436 32.436 37 26.8061 37H10.1939C4.56395 37 0 32.436 0 26.8061V10.1939ZM10.1939 2.26531C5.81505 2.26531 2.26531 5.81505 2.26531 10.1939V26.8061C2.26531 31.1849 5.81505 34.7347 10.1939 34.7347H26.8061C31.1849 34.7347 34.7347 31.1849 34.7347 26.8061V10.1939C34.7347 5.81505 31.1849 2.26531 26.8061 2.26531H10.1939Z" fill="white"/>
</svg>
