<svg width="41" height="37" viewBox="0 0 41 37" fill="none" xmlns="http://www.w3.org/2000/svg">
<path fill-rule="evenodd" clip-rule="evenodd" d="M11.3265 8.68367C11.3265 3.88781 15.2143 0 20.0102 0C24.8061 0 28.6939 3.88781 28.6939 8.68367C28.6939 13.4795 24.8061 17.3673 20.0102 17.3673C15.2143 17.3673 11.3265 13.4795 11.3265 8.68367ZM20.0102 2.26531C16.4654 2.26531 13.5918 5.13891 13.5918 8.68367C13.5918 12.2284 16.4654 15.102 20.0102 15.102C23.555 15.102 26.4286 12.2284 26.4286 8.68367C26.4286 5.13891 23.555 2.26531 20.0102 2.26531Z" fill="white"/>
<path fill-rule="evenodd" clip-rule="evenodd" d="M22.6531 28.3163C22.6531 23.5205 26.5409 19.6327 31.3367 19.6327C36.1326 19.6327 40.0204 23.5205 40.0204 28.3163C40.0204 33.1122 36.1326 37 31.3367 37C26.5409 37 22.6531 33.1122 22.6531 28.3163ZM31.3367 21.898C27.792 21.898 24.9184 24.7716 24.9184 28.3163C24.9184 31.8611 27.792 34.7347 31.3367 34.7347C34.8815 34.7347 37.7551 31.8611 37.7551 28.3163C37.7551 24.7716 34.8815 21.898 31.3367 21.898Z" fill="white"/>
<path fill-rule="evenodd" clip-rule="evenodd" d="M8.68367 19.6327C3.88781 19.6327 0 23.5205 0 28.3163C0 33.1122 3.88781 37 8.68367 37C13.4795 37 17.3673 33.1122 17.3673 28.3163C17.3673 23.5205 13.4795 19.6327 8.68367 19.6327ZM2.26531 28.3163C2.26531 24.7716 5.13891 21.898 8.68367 21.898C12.2284 21.898 15.102 24.7716 15.102 28.3163C15.102 31.8611 12.2284 34.7347 8.68367 34.7347C5.13891 34.7347 2.26531 31.8611 2.26531 28.3163Z" fill="white"/>
</svg>
