<svg width="37" height="37" viewBox="0 0 37 37" fill="none" xmlns="http://www.w3.org/2000/svg">
<path fill-rule="evenodd" clip-rule="evenodd" d="M17.0788 1.06731C17.0788 0.47785 17.5567 0 18.1461 0H25.2615C25.851 0 26.3288 0.47785 26.3288 1.06731C26.3288 3.4262 27.2659 5.68848 28.9339 7.35648C30.6019 9.02447 32.8641 9.96153 35.223 9.96153C35.8125 9.96153 36.2904 10.4394 36.2904 11.0288V18.1442C36.2904 18.733 35.8135 19.2106 35.2247 19.2115C32.0973 19.2165 29.034 18.4098 26.3288 16.8859L26.3288 23.8365C26.3286 26.3408 25.6141 28.7932 24.2691 30.9057C22.9241 33.0182 21.0045 34.7032 18.7355 35.7631C16.4665 36.8229 13.9423 37.2135 11.459 36.8891C8.97583 36.5646 6.63667 35.5387 4.71608 33.9315C2.7955 32.3243 1.37318 30.2027 0.616051 27.8156C-0.141079 25.4285 -0.201605 22.8749 0.441575 20.4546C1.08476 18.0343 2.40496 15.8476 4.24724 14.1513C6.08952 12.4549 8.37744 11.3193 10.8425 10.8776C11.1536 10.8218 11.4733 10.9068 11.7157 11.1096C11.958 11.3124 12.0981 11.6121 12.0981 11.9282L12.0979 19.3351C12.0979 19.7474 11.8605 20.1228 11.4881 20.2994C10.8554 20.5996 10.3148 21.064 9.92271 21.6443C9.53064 22.2245 9.30146 22.8994 9.25907 23.5984C9.21669 24.2974 9.36265 24.995 9.68173 25.6184C10.0008 26.2417 10.4813 26.7681 11.0731 27.1425C11.665 27.5169 12.3464 27.7256 13.0464 27.7469C13.7463 27.7682 14.4392 27.6013 15.0527 27.2635C15.6662 26.9258 16.1778 26.4296 16.5342 25.8268C16.8905 25.2241 17.0786 24.5367 17.0788 23.8365C17.0788 23.8364 17.0788 23.8366 17.0788 23.8365V1.06731ZM19.2134 2.13461V23.8365C19.2132 24.9188 18.9225 25.9815 18.3717 26.9131C17.8209 27.8448 17.0302 28.6116 16.0821 29.1335C15.134 29.6555 14.0632 29.9134 12.9815 29.8805C11.8997 29.8476 10.8466 29.525 9.93193 28.9464C9.0173 28.3678 8.2747 27.5544 7.78157 26.591C7.28844 25.6276 7.06287 24.5495 7.12837 23.4692C7.19388 22.3889 7.54807 21.346 8.15399 20.4492C8.62968 19.7452 9.24686 19.1515 9.96334 18.7043L9.96342 13.2805C8.37968 13.7608 6.91873 14.5931 5.69316 15.7216C4.14961 17.1429 3.04348 18.975 2.50459 21.0028C1.9657 23.0307 2.01641 25.1702 2.65077 27.1702C3.28513 29.1703 4.47682 30.9479 6.08598 32.2944C7.69514 33.641 9.65501 34.5006 11.7356 34.7724C13.8161 35.0443 15.9311 34.717 17.8321 33.829C19.7332 32.9411 21.3416 31.5293 22.4685 29.7593C23.5954 27.9894 24.194 25.9347 24.1942 23.8365C24.1942 23.8365 24.1942 23.8366 24.1942 23.8365L24.1941 14.9393C24.1941 14.5387 24.4184 14.1719 24.7749 13.9893C25.1314 13.8067 25.5601 13.8391 25.8852 14.0732C28.3148 15.823 31.1822 16.8484 34.1557 17.043V12.0444C31.6225 11.7982 29.2397 10.6811 27.4245 8.86588C25.6093 7.05067 24.4922 4.66786 24.2459 2.13461H19.2134Z" fill="white"/>
</svg>
