<svg width="64" height="53" viewBox="0 0 64 53" fill="none" xmlns="http://www.w3.org/2000/svg">
<g filter="url(#filter0_d_10992_24367)">
<path fill-rule="evenodd" clip-rule="evenodd" d="M32.3065 19.918C28.7857 19.918 25.9315 22.7722 25.9315 26.293C25.9315 29.8138 28.7857 32.668 32.3065 32.668C35.8273 32.668 38.6815 29.8138 38.6815 26.293C38.6815 22.7722 35.8273 19.918 32.3065 19.918ZM27.4315 26.293C27.4315 23.6006 29.6141 21.418 32.3065 21.418C34.9989 21.418 37.1815 23.6006 37.1815 26.293C37.1815 28.9854 34.9989 31.168 32.3065 31.168C29.6141 31.168 27.4315 28.9854 27.4315 26.293Z" fill="white"/>
<path fill-rule="evenodd" clip-rule="evenodd" d="M32.3065 15.418C26.432 15.418 22.314 18.0688 19.6824 20.7007C18.3687 22.0145 17.421 23.327 16.8007 24.3123C16.4902 24.8055 16.2606 25.2185 16.1074 25.511C16.0308 25.6573 15.9732 25.7736 15.934 25.855C15.9144 25.8957 15.8994 25.9277 15.889 25.9503L15.8767 25.9771L15.873 25.9851L15.8719 25.9878L15.8714 25.9888C15.8713 25.9891 15.8711 25.9895 16.5565 26.2941L15.8714 25.9888C15.7853 26.1827 15.7849 26.4048 15.8711 26.5987L16.5565 26.2941C15.8711 26.5987 15.871 26.5983 15.8711 26.5987L15.8719 26.6004L15.8731 26.603L15.8767 26.6111L15.889 26.6379C15.8994 26.6605 15.9144 26.6925 15.934 26.7332C15.9732 26.8145 16.0308 26.9308 16.1075 27.0771C16.2607 27.3696 16.4902 27.7824 16.8007 28.2756C17.421 29.2607 18.3688 30.5729 19.6824 31.8864C22.3141 34.5177 26.4321 37.168 32.3065 37.168C38.1809 37.168 42.2989 34.5177 44.9305 31.8864C46.2442 30.5729 47.1919 29.2607 47.8122 28.2756C48.1227 27.7824 48.3523 27.3696 48.5055 27.0771C48.5821 26.9308 48.6398 26.8145 48.6789 26.7332C48.6985 26.6925 48.7135 26.6605 48.724 26.6379L48.7363 26.6111L48.7399 26.603L48.7411 26.6004L48.7415 26.5994C48.7417 26.599 48.7418 26.5987 48.0565 26.2941L48.7415 26.5994C48.8277 26.4055 48.828 26.1834 48.7418 25.9895L48.0565 26.2941C48.7418 25.9895 48.742 25.9899 48.7418 25.9895L48.7399 25.9851L48.7363 25.9771L48.724 25.9503C48.7135 25.9277 48.6985 25.8957 48.679 25.855C48.6398 25.7736 48.5822 25.6573 48.5055 25.511C48.3523 25.2185 48.1228 24.8055 47.8123 24.3123C47.192 23.327 46.2442 22.0145 44.9306 20.7007C42.299 18.0688 38.1809 15.418 32.3065 15.418ZM18.07 27.4763C17.7829 27.0203 17.573 26.6422 17.4362 26.381C17.4201 26.3504 17.4051 26.3214 17.391 26.294C17.4051 26.2667 17.4201 26.2376 17.4362 26.2069C17.573 25.9457 17.7829 25.5675 18.0701 25.1114C18.6451 24.1981 19.5255 22.9791 20.7431 21.7613C23.174 19.3302 26.9309 16.918 32.3065 16.918C37.682 16.918 41.439 19.3302 43.8699 21.7613C45.0875 22.9791 45.9679 24.1981 46.5429 25.1114C46.83 25.5675 47.0399 25.9457 47.1768 26.2069C47.1928 26.2376 47.2079 26.2667 47.2219 26.294C47.2079 26.3214 47.1928 26.3504 47.1768 26.381C47.04 26.6422 46.83 27.0203 46.5429 27.4763C45.9679 28.3894 45.0875 29.6082 43.8699 30.8257C41.4391 33.2563 37.6821 35.668 32.3065 35.668C26.9309 35.668 23.1739 33.2563 20.743 30.8257C19.5254 29.6082 18.645 28.3894 18.07 27.4763Z" fill="white"/>
</g>
<defs>
<filter id="filter0_d_10992_24367" x="0.806641" y="0.417969" width="63" height="51.75" filterUnits="userSpaceOnUse" color-interpolation-filters="sRGB">
<feFlood flood-opacity="0" result="BackgroundImageFix"/>
<feColorMatrix in="SourceAlpha" type="matrix" values="0 0 0 0 0 0 0 0 0 0 0 0 0 0 0 0 0 0 127 0" result="hardAlpha"/>
<feOffset/>
<feGaussianBlur stdDeviation="7.5"/>
<feComposite in2="hardAlpha" operator="out"/>
<feColorMatrix type="matrix" values="0 0 0 0 0 0 0 0 0 0 0 0 0 0 0 0 0 0 1 0"/>
<feBlend mode="normal" in2="BackgroundImageFix" result="effect1_dropShadow_10992_24367"/>
<feBlend mode="normal" in="SourceGraphic" in2="effect1_dropShadow_10992_24367" result="shape"/>
</filter>
</defs>
</svg>
