<svg width="65" height="53" viewBox="0 0 65 53" fill="none" xmlns="http://www.w3.org/2000/svg">
<g filter="url(#filter0_d_10992_21036)">
<path d="M49.0847 25.8372C49.0352 25.7261 47.8444 23.0843 45.1959 20.4356C41.6685 16.9078 37.2113 15.043 32.3066 15.043C27.4019 15.043 22.9447 16.9078 19.4173 20.4356C16.7688 23.0843 15.578 25.7261 15.5286 25.8372C15.4647 25.981 15.4316 26.1367 15.4316 26.2941C15.4316 26.4515 15.4647 26.6071 15.5286 26.751C15.578 26.8622 16.7689 29.5033 19.4174 32.1516C22.9449 35.6786 27.4019 37.543 32.3066 37.543C37.2113 37.543 41.6683 35.6786 45.1958 32.1516C47.8443 29.5033 49.0352 26.8622 49.0847 26.751C49.1486 26.6071 49.1816 26.4515 49.1816 26.2941C49.1816 26.1367 49.1486 25.981 49.0847 25.8372ZM32.3066 21.2317C33.3079 21.2317 34.2867 21.5286 35.1192 22.0849C35.9517 22.6412 36.6006 23.4318 36.9837 24.3569C37.3669 25.2819 37.4672 26.2998 37.2718 27.2818C37.0765 28.2639 36.5943 29.1659 35.8863 29.8739C35.1783 30.5819 34.2763 31.0641 33.2943 31.2594C32.3122 31.4548 31.2943 31.3545 30.3693 30.9713C29.4442 30.5882 28.6536 29.9393 28.0973 29.1068C27.541 28.2743 27.2441 27.2955 27.2441 26.2942C27.2456 24.952 27.7795 23.6652 28.7285 22.7161C29.6776 21.7671 30.9644 21.2332 32.3066 21.2317Z" fill="white"/>
</g>
<defs>
<filter id="filter0_d_10992_21036" x="0.431641" y="0.0429688" width="63.75" height="52.5" filterUnits="userSpaceOnUse" color-interpolation-filters="sRGB">
<feFlood flood-opacity="0" result="BackgroundImageFix"/>
<feColorMatrix in="SourceAlpha" type="matrix" values="0 0 0 0 0 0 0 0 0 0 0 0 0 0 0 0 0 0 127 0" result="hardAlpha"/>
<feOffset/>
<feGaussianBlur stdDeviation="7.5"/>
<feComposite in2="hardAlpha" operator="out"/>
<feColorMatrix type="matrix" values="0 0 0 0 0 0 0 0 0 0 0 0 0 0 0 0 0 0 1 0"/>
<feBlend mode="normal" in2="BackgroundImageFix" result="effect1_dropShadow_10992_21036"/>
<feBlend mode="normal" in="SourceGraphic" in2="effect1_dropShadow_10992_21036" result="shape"/>
</filter>
</defs>
</svg>
