<svg width="55" height="54" viewBox="0 0 55 54" fill="none" xmlns="http://www.w3.org/2000/svg">
<g filter="url(#filter0_d_10992_24370)">
<path d="M35.2154 23.4231C35.2154 28.075 31.6957 31.8462 27.3538 31.8462C23.012 31.8462 19.4923 28.075 19.4923 23.4231C19.4923 18.7711 23.012 15 27.3538 15C31.6957 15 35.2154 18.7711 35.2154 23.4231Z" fill="white"/>
<path d="M20.222 33.6515C18.0535 34.8343 16.2525 36.5356 15 38.5844L39.7077 38.5846C38.4552 36.5358 36.6543 34.8345 34.4858 33.6517C32.3173 32.4689 29.8576 31.8462 27.3538 31.8462C24.8501 31.8461 22.3905 32.4688 20.222 33.6515Z" fill="white"/>
</g>
<defs>
<filter id="filter0_d_10992_24370" x="0" y="0" width="54.707" height="53.5859" filterUnits="userSpaceOnUse" color-interpolation-filters="sRGB">
<feFlood flood-opacity="0" result="BackgroundImageFix"/>
<feColorMatrix in="SourceAlpha" type="matrix" values="0 0 0 0 0 0 0 0 0 0 0 0 0 0 0 0 0 0 127 0" result="hardAlpha"/>
<feOffset/>
<feGaussianBlur stdDeviation="7.5"/>
<feComposite in2="hardAlpha" operator="out"/>
<feColorMatrix type="matrix" values="0 0 0 0 0 0 0 0 0 0 0 0 0 0 0 0 0 0 1 0"/>
<feBlend mode="normal" in2="BackgroundImageFix" result="effect1_dropShadow_10992_24370"/>
<feBlend mode="normal" in="SourceGraphic" in2="effect1_dropShadow_10992_24370" result="shape"/>
</filter>
</defs>
</svg>
