<svg width="57" height="56" viewBox="0 0 57 56" fill="none" xmlns="http://www.w3.org/2000/svg">
<g filter="url(#filter0_d_10984_18269)">
<path fill-rule="evenodd" clip-rule="evenodd" d="M32.2809 32.5914C35.0765 31.0632 36.9655 27.9565 36.9655 24.4231C36.9655 19.4065 33.1579 15.25 28.354 15.25C23.55 15.25 19.7424 19.4065 19.7424 24.4231C19.7424 27.9565 21.6314 31.0632 24.4269 32.5913C23.1859 32.9099 21.9876 33.3797 20.863 33.9931C18.5825 35.2369 16.6833 37.0289 15.3602 39.1932C15.1442 39.5466 15.2555 40.0082 15.6089 40.2243C15.9623 40.4403 16.424 40.329 16.64 39.9756C17.8219 38.0422 19.5246 36.4317 21.5812 35.31C23.638 34.1882 25.9739 33.5961 28.354 33.5962C28.3539 33.5962 28.354 33.5962 28.354 33.5962C30.734 33.5962 33.07 34.1882 35.1268 35.3101C37.1833 36.4319 38.886 38.0424 40.0679 39.9758C40.2839 40.3292 40.7456 40.4406 41.099 40.2245C41.4524 40.0085 41.5637 39.5468 41.3477 39.1934C40.0247 37.0291 38.1255 35.2371 35.8451 33.9933C34.7204 33.3798 33.522 32.91 32.2809 32.5914ZM21.2424 24.4231C21.2424 20.1358 24.4743 16.75 28.354 16.75C32.2337 16.75 35.4655 20.1358 35.4655 24.4231C35.4655 28.7104 32.2337 32.0961 28.354 32.0962C28.354 32.0962 28.354 32.0962 28.354 32.0962C24.4743 32.0962 21.2424 28.7104 21.2424 24.4231Z" fill="white"/>
</g>
<defs>
<filter id="filter0_d_10984_18269" x="0.25" y="0.25" width="56.207" height="55.0859" filterUnits="userSpaceOnUse" color-interpolation-filters="sRGB">
<feFlood flood-opacity="0" result="BackgroundImageFix"/>
<feColorMatrix in="SourceAlpha" type="matrix" values="0 0 0 0 0 0 0 0 0 0 0 0 0 0 0 0 0 0 127 0" result="hardAlpha"/>
<feOffset/>
<feGaussianBlur stdDeviation="7.5"/>
<feComposite in2="hardAlpha" operator="out"/>
<feColorMatrix type="matrix" values="0 0 0 0 0 0 0 0 0 0 0 0 0 0 0 0 0 0 1 0"/>
<feBlend mode="normal" in2="BackgroundImageFix" result="effect1_dropShadow_10984_18269"/>
<feBlend mode="normal" in="SourceGraphic" in2="effect1_dropShadow_10984_18269" result="shape"/>
</filter>
</defs>
</svg>
