<svg width="59" height="52" viewBox="0 0 59 52" fill="none" xmlns="http://www.w3.org/2000/svg">
<g filter="url(#filter0_d_10992_24366)">
<path d="M35.7021 25.2223C35.8614 24.8399 35.6806 24.4008 35.2983 24.2415C34.9159 24.0822 34.4768 24.2629 34.3175 24.6453C33.7874 25.9173 33.037 26.9437 32.1637 27.6424C31.2939 28.3382 30.3358 28.6838 29.3848 28.6838C28.4337 28.6838 27.4756 28.3382 26.6058 27.6424C25.7325 26.9438 24.9822 25.9174 24.4521 24.6454C24.2927 24.263 23.8536 24.0823 23.4713 24.2416C23.0889 24.4009 22.9081 24.8401 23.0675 25.2224C23.6777 26.6868 24.5673 27.9326 25.6688 28.8137C26.7738 29.6977 28.0557 30.1838 29.3848 30.1838C30.7139 30.1838 31.9958 29.6976 33.1008 28.8137C34.2022 27.9325 35.0918 26.6867 35.7021 25.2223Z" fill="white"/>
<path fill-rule="evenodd" clip-rule="evenodd" d="M29.3775 15.1838C29.3772 15.1838 29.3769 15.1838 29.3848 15.9338C29.3926 15.1838 29.3923 15.1838 29.392 15.1838L29.3886 15.1838L29.3796 15.1837L29.3474 15.1836C29.3196 15.1836 29.2794 15.1836 29.2276 15.184C29.1239 15.1848 28.9738 15.1869 28.7837 15.1922C28.4038 15.2028 27.8636 15.2262 27.2162 15.2775C25.925 15.3796 24.1911 15.5936 22.4472 16.044C20.7132 16.4918 18.9105 17.188 17.5272 18.2886C16.1204 19.4079 15.1348 20.9612 15.1348 23.0477C15.1348 30.736 21.5342 36.9338 29.3848 36.9338C37.2354 36.9338 43.6348 30.736 43.6348 23.0477C43.6348 20.9612 42.6491 19.4079 41.2424 18.2886C39.859 17.188 38.0563 16.4918 36.3223 16.044C34.5784 15.5936 32.8445 15.3796 31.5533 15.2775C30.9059 15.2262 30.3657 15.2028 29.9858 15.1922C29.7958 15.1869 29.6456 15.1848 29.542 15.184C29.4902 15.1836 29.4499 15.1836 29.4222 15.1836L29.3899 15.1837L29.381 15.1838L29.3775 15.1838ZM16.6348 23.0477C16.6348 21.5067 17.3366 20.3571 18.4611 19.4624C19.609 18.549 21.1813 17.9201 22.8223 17.4963C24.4534 17.0751 26.0945 16.8709 27.3345 16.7728C27.9528 16.7239 28.4672 16.7016 28.8256 16.6916C29.0047 16.6866 29.1446 16.6847 29.2388 16.684C29.2858 16.6836 29.3214 16.6836 29.3447 16.6836L29.3703 16.6837L29.3761 16.6837L29.3771 16.6838L29.3924 16.6838L29.3935 16.6837L29.3992 16.6837L29.4248 16.6836C29.4481 16.6836 29.4837 16.6836 29.5308 16.684C29.6249 16.6847 29.7648 16.6866 29.9439 16.6916C30.3023 16.7016 30.8167 16.7239 31.435 16.7728C32.675 16.8709 34.3161 17.0751 35.9472 17.4963C37.5882 17.9201 39.1605 18.549 40.3084 19.4624C41.4329 20.3571 42.1348 21.5067 42.1348 23.0477C42.1348 29.8692 36.4458 35.4338 29.3848 35.4338C22.3237 35.4338 16.6348 29.8692 16.6348 23.0477Z" fill="white"/>
</g>
<defs>
<filter id="filter0_d_10992_24366" x="0.134766" y="0.183594" width="58.5" height="51.75" filterUnits="userSpaceOnUse" color-interpolation-filters="sRGB">
<feFlood flood-opacity="0" result="BackgroundImageFix"/>
<feColorMatrix in="SourceAlpha" type="matrix" values="0 0 0 0 0 0 0 0 0 0 0 0 0 0 0 0 0 0 127 0" result="hardAlpha"/>
<feOffset/>
<feGaussianBlur stdDeviation="7.5"/>
<feComposite in2="hardAlpha" operator="out"/>
<feColorMatrix type="matrix" values="0 0 0 0 0 0 0 0 0 0 0 0 0 0 0 0 0 0 1 0"/>
<feBlend mode="normal" in2="BackgroundImageFix" result="effect1_dropShadow_10992_24366"/>
<feBlend mode="normal" in="SourceGraphic" in2="effect1_dropShadow_10992_24366" result="shape"/>
</filter>
</defs>
</svg>
