<svg width="59" height="53" viewBox="0 0 59 53" fill="none" xmlns="http://www.w3.org/2000/svg">
<g filter="url(#filter0_d_10984_18263)">
<path fill-rule="evenodd" clip-rule="evenodd" d="M43.3848 22.7874C43.3848 30.6692 37.1168 37.0586 29.3848 37.0586C21.6528 37.0586 15.3848 30.6692 15.3848 22.7874C15.3848 14.9057 29.3848 15.0588 29.3848 15.0588C29.3848 15.0588 43.3848 14.9057 43.3848 22.7874ZM35.8772 26.6026C35.2398 27.7586 34.3232 28.7185 33.2195 29.3859C32.1158 30.0533 30.8639 30.4046 29.5896 30.4046C28.3152 30.4046 27.0633 30.0533 25.9596 29.3859C24.8559 28.7186 23.9393 27.7587 23.3019 26.6027C23.1642 26.3532 23.1267 26.0567 23.1977 25.7783C23.2687 25.5 23.4423 25.2625 23.6804 25.1183C23.9185 24.974 24.2015 24.9347 24.4672 25.0091C24.733 25.0835 24.9596 25.2654 25.0973 25.5148C25.5526 26.3409 26.2075 27.0269 26.996 27.5038C27.7846 27.9807 28.6791 28.2318 29.5896 28.2318C30.5002 28.2318 31.3947 27.9807 32.1832 27.5038C32.9718 27.0268 33.6266 26.3408 34.0819 25.5147C34.1501 25.3912 34.2408 25.283 34.3489 25.1963C34.457 25.1095 34.5804 25.0459 34.712 25.0091C34.8435 24.9723 34.9807 24.963 35.1157 24.9817C35.2507 25.0004 35.3809 25.0468 35.4988 25.1183C35.6167 25.1897 35.72 25.2848 35.8028 25.398C35.8856 25.5113 35.9463 25.6405 35.9814 25.7783C36.0166 25.9162 36.0255 26.0599 36.0076 26.2013C35.9897 26.3428 35.9454 26.4791 35.8772 26.6026Z" fill="white"/>
</g>
<defs>
<filter id="filter0_d_10984_18263" x="0.384766" y="0.0585938" width="58" height="52" filterUnits="userSpaceOnUse" color-interpolation-filters="sRGB">
<feFlood flood-opacity="0" result="BackgroundImageFix"/>
<feColorMatrix in="SourceAlpha" type="matrix" values="0 0 0 0 0 0 0 0 0 0 0 0 0 0 0 0 0 0 127 0" result="hardAlpha"/>
<feOffset/>
<feGaussianBlur stdDeviation="7.5"/>
<feComposite in2="hardAlpha" operator="out"/>
<feColorMatrix type="matrix" values="0 0 0 0 0 0 0 0 0 0 0 0 0 0 0 0 0 0 1 0"/>
<feBlend mode="normal" in2="BackgroundImageFix" result="effect1_dropShadow_10984_18263"/>
<feBlend mode="normal" in="SourceGraphic" in2="effect1_dropShadow_10984_18263" result="shape"/>
</filter>
</defs>
</svg>
